HIERARCHY
ROOT Hips
{
  OFFSET 13.6774 106.653 -34.4427
  CHANNELS 6 Xposition Yposition Zposition Zrotation Xrotation Yrotation
  JOINT ToSpine
  {
    OFFSET -2.69724 7.43032 -0.144315
    CHANNELS 3 Zrotation Xrotation Yrotation
    JOINT Spine
    {
      OFFSET -0.0310711 10.7595 1.96963
      CHANNELS 3 Zrotation Xrotation Yrotation
      JOINT Spine1
      {
        OFFSET 19.9056 3.91189 0.764692
        CHANNELS 3 Zrotation Xrotation Yrotation
        JOINT Neck
        {
          OFFSET 25.9749 7.03908 -0.130764
          CHANNELS 3 Zrotation Xrotation Yrotation
          JOINT Head
          {
            OFFSET 9.52751 0.295786 -0.907742
            CHANNELS 3 Zrotation Xrotation Yrotation
            End Site
            {
              OFFSET 16.4037 0.713936 2.7358
            }
          }
        }
        JOINT LeftShoulder
        {
          OFFSET 17.7449 4.33886 11.7777
          CHANNELS 3 Zrotation Xrotation Yrotation
          JOINT LeftArm
          {
            OFFSET 0.911315 1.27913 9.80584
            CHANNELS 3 Zrotation Xrotation Yrotation
            JOINT LeftForeArm
            {
              OFFSET 28.6126 1.18197 -3.53199
              CHANNELS 3 Zrotation Xrotation Yrotation
              JOINT LeftHand
              {
                OFFSET 27.5088 0.0218783 0.327423
                CHANNELS 3 Zrotation Xrotation Yrotation
                End Site
                {
                  OFFSET 18.6038 -0.000155887 0.382096
                }
              }
            }
          }
        }
        JOINT RightShoulder
        {
          OFFSET 17.1009 2.89543 -12.2328
          CHANNELS 3 Zrotation Xrotation Yrotation
          JOINT RightArm
          {
            OFFSET 1.4228 0.178766 -10.211
            CHANNELS 3 Zrotation Xrotation Yrotation
            JOINT RightForeArm
            {
              OFFSET 28.733 1.87905 2.64907
              CHANNELS 3 Zrotation Xrotation Yrotation
              JOINT RightHand
              {
                OFFSET 27.4588 0.290562 -0.101845
                CHANNELS 3 Zrotation Xrotation Yrotation
                End Site
                {
                  OFFSET 17.8396 -0.255518 -0.000602873
                }
              }
            }
          }
        }
      }
    }
  }
  JOINT LeftUpLeg
  {
    OFFSET -5.61296 -2.22332 -10.2353
    CHANNELS 3 Zrotation Xrotation Yrotation
    JOINT LeftLeg
    {
      OFFSET 2.56703 -44.7417 -7.93097
      CHANNELS 3 Zrotation Xrotation Yrotation
      JOINT LeftFoot
      {
        OFFSET 3.16933 -46.5642 -3.96578
        CHANNELS 3 Zrotation Xrotation Yrotation
        JOINT LeftToeBase
        {
          OFFSET 0.346054 -6.02161 12.8035
          CHANNELS 3 Zrotation Xrotation Yrotation
          End Site
          {
            OFFSET 0.134235 -1.35082 5.13018
          }
        }
      }
    }
  }
  JOINT RightUpLeg
  {
    OFFSET -5.7928 -1.72406 10.6446
    CHANNELS 3 Zrotation Xrotation Yrotation
    JOINT RightLeg
    {
      OFFSET -2.57161 -44.7178 -7.85259
      CHANNELS 3 Zrotation Xrotation Yrotation
      JOINT RightFoot
      {
        OFFSET -3.10148 -46.5936 -4.03391
        CHANNELS 3 Zrotation Xrotation Yrotation
        JOINT RightToeBase
        {
          OFFSET -0.0828122 -6.13587 12.8035
          CHANNELS 3 Zrotation Xrotation Yrotation
          End Site
          {
            OFFSET -0.131328 -1.35082 5.13018
          }
        }
      }
    }
  }
}
MOTION
Frames: 19
Frame Time: 0.03333333333333333
0.0000 93.1000 0.0000 -43.3290 -42.7661 -144.2731 -70.7084 -2.7806 87.9013 88.6463 63.0403 -1.7281 4.2982 11.0905 10.3257 -129.8978 18.9105 -178.2510 -133.0999 52.5056 170.7387 -0.6318 -12.0000 -12.8746 -108.0775 36.0275 -82.3054 -4.6892 2.5031 -126.5437 -3.2284 -0.0077 0.9825 -2.9378 0.6204 23.0995 -69.1038 -44.9156 125.3370 2.5999 2.0208 130.8740 -1.1939 -0.8458 -3.4414 -68.0313 2.8962 103.0672 -2.8990 36.0886 -7.0509 -4.1554 -9.3791 0.5546 10.4362 -21.4182 14.2393 -12.2351 16.8428 105.1406 6.2375 58.0424 12.7606 -4.1681 -11.6036 -1.8068 -0.5478 -6.6209 -2.3849 
0.0000 93.1000 0.0000 -38.9148 -48.9833 -139.7790 -70.7395 -1.3250 87.7166 86.2930 63.2427 -0.0358 3.8497 11.4001 11.8823 -127.6307 20.2917 182.1390 -132.1691 54.4612 170.9114 0.2114 -12.0819 -11.7239 -112.6636 38.0002 -82.6339 -4.3794 2.3899 -126.7403 -3.1834 0.1615 1.2890 -1.4750 1.0572 21.4800 -69.3983 -46.3146 127.7355 4.4673 3.4289 129.6145 -0.5265 -1.0185 -1.6640 -67.1096 3.6848 101.3478 -2.3495 35.6345 -7.8679 -3.9288 -9.4295 -0.7183 10.5468 -22.3648 14.9677 -13.2225 13.8565 104.0656 5.8183 57.8548 10.8728 -5.1132 -13.0706 -0.0023 -0.2366 -3.6662 -3.6696 
0.0000 93.1000 0.0000 -33.6364 -52.5493 -133.2729 -70.5098 -0.5006 87.5337 86.6264 64.4094 0.0633 4.3933 11.7721 11.9261 -126.8479 21.7555 179.4983 -133.8206 57.2113 172.9191 0.6265 -12.0002 -12.0674 -114.9492 39.2740 -85.5057 -2.9967 1.9757 -126.6889 -2.9621 0.5623 1.3302 -0.3759 1.2323 18.1739 -70.8212 -47.4107 129.0082 7.7971 5.9968 127.7907 0.4413 -1.2966 -0.4043 -66.2399 5.7650 99.6645 -2.4707 35.9578 -6.6202 -5.0347 -8.0504 -1.5336 10.7762 -22.9708 13.3166 -14.8031 11.4723 102.8735 4.9715 58.4692 9.0563 -5.2482 -14.4268 1.3111 -0.0441 -3.9054 -2.3258 
0.0000 93.1000 0.0000 -26.9186 -56.9268 -125.2704 -70.5464 -0.8266 87.8743 86.2536 64.3514 0.3604 4.3293 11.8331 10.7031 -123.7643 22.5340 177.6315 -135.2868 58.8951 176.0302 0.5215 -12.2299 -11.2866 -115.1591 41.7813 -89.4276 -1.1972 0.3122 -125.6699 -3.1403 0.2663 1.3689 -0.9588 2.1194 17.1650 -74.1114 -46.9764 129.2324 8.5572 7.2198 126.8115 0.0845 -0.8193 -0.0298 -66.1807 6.2284 99.3550 -2.2893 34.8851 -6.0102 -4.9851 -7.3851 -0.8250 10.4642 -22.0495 15.1871 -17.0306 7.8198 101.3832 4.4484 56.9578 7.8004 -4.4287 -15.2254 0.6487 0.1186 -4.6235 -3.7759 
0.0000 93.1000 0.0000 -18.0047 -60.8362 -116.7899 -70.5260 -3.5671 87.6139 85.6113 64.9406 1.4756 3.5789 12.5151 8.2164 -121.5357 23.2876 174.2448 -133.7398 60.1427 175.4171 -1.1570 -12.7265 -10.7897 -113.4270 44.0297 -92.5799 2.3185 -2.0501 -123.8978 -3.6329 0.3321 2.2442 -3.1687 3.1941 16.9460 -77.9499 -47.2709 127.5313 10.9263 7.9718 125.9620 -1.6427 -0.8092 -1.6034 -65.0303 7.8549 98.6688 -1.7145 34.0273 -3.8983 -5.9889 -8.5809 1.2220 9.1319 -20.0230 16.6347 -18.0417 5.1836 100.0940 4.7921 56.9993 6.1258 -5.4835 -15.4272 -2.2454 -0.9519 -4.7388 -5.1012 
0.0000 93.1000 0.0000 -6.7591 -63.1856 -104.9339 -70.7182 -0.5542 87.7039 85.7502 64.9329 2.2801 4.3492 13.2799 8.5759 -119.7161 24.1657 174.5816 -136.8750 61.5484 -179.3401 0.7036 -13.0282 -11.7126 -112.0293 44.2007 -96.0660 2.8006 -3.1319 -122.2619 -2.9118 -0.2378 0.4351 -0.7732 3.3477 13.2497 -80.1509 -49.4259 128.1196 13.4064 9.9031 123.8806 -0.2800 -0.0599 0.1921 -64.2253 9.4151 100.0298 -1.4508 33.5295 -2.0592 -5.8833 -9.5361 -0.8576 8.2286 -18.1898 13.7558 -20.0734 0.8482 97.9262 3.0521 55.9460 4.9532 -5.6679 -16.4097 1.0840 1.4360 -5.0322 -7.3337 
0.0000 93.1000 0.0000 4.0371 -64.1540 -92.9401 -70.8262 -1.2330 87.7004 83.5985 65.1874 3.8433 4.0736 13.3173 9.1157 -118.5654 24.9189 173.5672 -139.0576 63.1985 -179.3931 0.1599 -14.0979 -12.7291 -109.5914 44.9224 -99.0909 2.3875 -2.6677 -121.8444 -3.1334 -0.1628 1.3611 -1.3056 4.1266 11.9958 -83.0337 -50.3029 125.9052 14.2718 9.8306 122.9731 -0.7825 -0.0288 0.1753 -61.9602 9.8254 99.9407 -1.4750 32.1070 -1.0049 -7.4009 -9.7292 0.1375 7.3853 -16.7197 13.4795 -21.3296 -1.7567 95.1830 3.8543 55.2844 3.0019 -5.5942 -16.4718 0.0024 0.6445 -3.8021 -9.0992 
0.0000 93.1000 0.0000 14.8378 -64.3131 -80.1654 -70.7913 -0.8507 87.8041 82.7085 66.1706 5.1852 3.9515 13.9803 7.4785 -116.9280 24.4693 169.7870 -140.2001 64.4919 -177.8329 0.4358 -14.1002 -11.4690 -106.8720 46.5839 -103.9644 3.8496 -2.9363 -119.6686 -3.0561 -0.3735 1.0621 -1.1151 4.3008 11.8805 -86.2867 -49.8559 123.7147 15.4331 10.0516 122.7041 -0.0742 0.2447 0.2691 -60.9275 10.0033 100.5874 -2.0191 30.9706 2.3009 -6.3531 -9.0509 -0.0085 6.1223 -15.3538 11.2151 -22.6109 -4.3838 91.7942 3.5925 54.3949 3.9818 -5.9499 -16.0886 0.2287 0.8446 -3.7440 -9.5792 
0.0000 93.1000 0.0000 24.4285 -64.2134 -69.9084 -70.9085 -1.2295 87.8696 81.6616 66.6382 6.4871 4.0962 14.7131 6.9260 -115.9272 24.6031 168.8262 -143.9410 65.0671 -175.2990 0.0157 -14.0130 -12.0170 -104.8750 48.0862 -106.7160 5.9879 -3.2643 -117.6110 -3.1547 -0.0120 1.1076 -1.2270 4.8688 10.8573 -87.9413 -50.4273 122.7641 17.2347 11.1855 122.3157 0.3854 -0.1231 0.1824 -60.0305 11.1800 100.9328 -2.2199 30.7986 1.3123 -6.3822 -8.7052 -0.0823 5.1681 -14.1917 13.7347 -24.4113 -7.1433 88.0975 2.4894 52.9103 4.3649 -5.5111 -15.9928 -0.1326 -0.1501 -3.3032 -8.8845 
0.0000 93.1000 0.0000 31.9373 -63.1080 -60.4516 -70.7071 -0.2372 87.9643 81.8764 67.0315 6.5717 3.9433 15.2715 6.8407 -113.9321 24.6950 167.8833 -146.1799 65.8370 -172.2149 0.6165 -14.3868 -11.4804 -102.9167 49.1693 -108.9013 6.9742 -5.2436 -117.6380 -3.0022 -0.1221 0.9871 -0.6182 4.9738 11.5206 -91.3698 -49.7939 120.8254 18.2849 11.5416 121.9681 0.8343 0.1025 0.4473 -58.7664 11.2577 100.4987 -1.9944 30.3224 -0.9913 -5.1700 -9.0480 -0.7975 5.3706 -14.0152 14.5429 -26.3401 -9.9748 83.6653 2.9271 50.9498 5.2094 -5.8439 -14.9050 0.9277 0.9006 -3.7759 -11.2206 
0.0000 93.1000 0.0000 39.4107 -61.0063 -52.2623 -70.7711 0.0733 88.0900 82.9447 67.1512 6.3080 4.4219 15.8967 6.1442 -111.9575 23.9190 163.4039 -142.1812 65.9812 -175.9903 0.9386 -14.9225 -10.8619 -99.8411 50.7027 -111.6877 9.5523 -5.9552 -115.4292 -3.2185 -0.4447 1.2492 -0.7287 5.1313 12.7743 -94.4374 -47.9297 118.2843 18.2463 11.5602 122.2622 0.0776 0.4926 0.0498 -56.8793 11.7756 99.7405 -2.0498 30.0580 0.1910 -4.6698 -8.8645 -0.5304 5.8221 -14.8919 13.0763 -29.0146 -11.7757 81.1582 2.6721 48.6879 5.2657 -6.1364 -14.1357 0.7531 0.8241 -3.4584 -10.3060 
0.0000 93.1000 0.0000 43.1438 -59.0759 -47.3837 -70.9023 0.2184 88.0678 81.7407 68.0505 6.4560 4.4017 16.3008 5.6014 -110.9539 23.4362 160.8844 -140.9740 66.7347 -176.3436 1.2217 -15.0209 -10.2496 -96.8239 51.4915 -114.6998 9.9836 -5.6174 -114.4334 -3.0846 -0.8421 1.3761 -0.9997 5.0268 14.0720 -97.8322 -46.6198 116.9500 17.9040 12.1316 123.1204 -0.3750 0.9856 -0.2942 -55.7964 11.8364 98.7419 -1.0857 29.8836 0.0502 -2.8997 -7.7190 -0.1244 4.0019 -11.7933 12.2900 -30.3221 -12.9610 78.9306 1.2039 45.7696 3.8126 -4.1169 -13.1862 0.2002 -0.1809 -1.3368 -6.7030 
0.0000 93.1000 0.0000 46.9518 -58.0410 -42.3896 -70.8260 0.0333 88.0449 83.1607 68.2915 5.8402 4.4286 16.6116 5.4064 -111.0782 23.2245 159.5832 -142.6826 67.0828 -175.5211 1.0930 -14.6408 -9.6004 -95.2458 51.8211 -117.6172 9.0077 -4.7563 -114.4690 -2.2664 -0.6638 1.2004 -0.9497 4.8567 13.5371 -99.3728 -47.4004 116.0528 18.5141 13.1264 123.1675 -0.2537 0.7252 -0.4317 -54.8062 11.1524 97.7137 -0.9101 29.8830 0.9311 -0.8934 -7.8941 -0.4786 2.6735 -10.1423 8.7069 -32.3534 -13.9218 76.8928 1.5112 43.8616 3.4909 -3.5798 -12.3861 0.2004 -0.1535 -1.3716 -5.2214 
0.0000 93.1000 0.0000 49.9081 -56.5734 -39.1835 -70.7303 -0.2155 87.7930 83.0459 68.5287 6.0850 4.5836 16.9899 5.4683 -111.7635 23.8003 160.7630 -147.7684 67.6852 -169.6775 0.8877 -14.3299 -10.8409 -94.1809 51.0428 -118.4962 9.6726 -5.1824 -113.7118 -1.8963 -0.5196 1.0875 -0.9419 5.2806 12.2241 -99.2796 -48.8933 115.7875 20.5567 14.5478 122.8688 -0.2545 0.5656 -0.5481 -53.4148 10.8494 95.8601 -1.1659 30.4233 1.2132 -0.7069 -7.9080 -0.5397 2.6977 -9.9488 7.5865 -33.4190 -14.9183 76.0437 1.8418 41.8799 1.9134 -2.9991 -11.0555 -0.0637 -0.2996 -1.1013 -3.8638 
0.0000 93.1000 0.0000 51.1074 -54.8750 -36.4056 -70.8838 -0.5121 87.6685 82.8767 69.1069 5.6235 4.0463 16.8629 5.3117 -110.6990 24.0246 160.8670 -150.1238 68.1164 -167.9158 0.6961 -14.2179 -10.8865 -92.7218 51.2808 -119.6528 9.9882 -4.6157 -112.6905 -2.1196 -0.3309 1.6425 -1.0561 5.3626 12.3786 -100.9576 -48.7324 113.8846 22.2711 14.9759 123.0769 -0.2495 0.3556 -0.7614 -52.7184 10.1112 94.8845 -2.1086 30.4467 0.8555 -1.2304 -7.7815 -0.3842 3.2360 -9.5106 5.8903 -34.4467 -14.7571 76.2394 0.6357 39.6192 -0.3272 -2.9821 -9.8697 -0.3389 -0.6207 -2.0119 -2.1353 
0.0000 93.1000 0.0000 52.8323 -54.2316 -34.8417 -70.8585 -0.1965 87.5029 81.9362 69.3091 6.3554 4.4957 17.1553 5.1506 -110.8598 22.9458 159.3936 -146.0520 68.1065 -171.9892 0.9577 -13.8161 -10.0915 -91.8653 51.6423 -122.4471 10.0674 -4.9160 -112.6547 -2.0069 -0.3194 1.7639 -0.7645 5.2398 14.0366 -104.0762 -47.3720 111.7563 20.6851 14.3381 123.0173 0.0681 0.2731 -0.9767 -51.9617 9.9835 94.6163 -1.5221 31.4647 -0.6155 -1.3512 -8.4397 -0.7931 3.2486 -9.4546 4.9703 -35.0845 -16.0343 75.8497 0.7581 37.6471 -2.1040 -3.0794 -7.7616 -0.0161 0.0616 -2.5684 0.3260 
0.0000 93.1000 0.0000 53.8744 -54.1738 -33.0243 -70.8059 0.2350 87.5720 81.9078 69.4136 5.8307 4.8232 17.8107 5.0952 -110.8961 23.1096 156.8675 -143.8755 68.1577 -173.0376 1.3934 -13.9086 -9.8820 -88.8739 52.6889 -124.6871 10.3680 -5.0343 -111.8818 -1.7223 -0.9317 1.1949 -0.9994 5.2366 14.7948 -106.0026 -46.9487 109.6462 20.2345 15.0892 123.9471 -0.3243 1.0000 -1.0118 -51.6895 9.2734 94.8387 -1.5878 32.1499 -2.2997 -1.8429 -9.2150 -0.3642 3.6630 -10.1941 5.0113 -36.1948 -16.9593 75.9890 0.6779 36.1061 -3.3603 -3.6224 -5.5896 -0.0845 -0.0796 -3.2684 1.6825 
0.0000 93.1000 0.0000 56.1026 -53.0603 -31.5142 -70.9471 0.3149 87.7753 81.9395 69.9983 4.2544 4.4308 17.9248 5.6866 -110.8759 23.2421 156.5830 -146.5906 68.6922 -172.0210 1.3306 -14.0000 -9.9964 -86.9220 52.9132 -126.7683 10.7133 -5.2516 -110.8909 -2.0124 -0.7016 1.3699 -0.7779 4.9412 14.4089 -107.9774 -47.6773 105.9274 21.1105 15.5315 123.9936 0.0631 0.7509 -0.7092 -51.0124 7.8932 94.6929 -1.7551 32.1045 -3.3894 -2.0379 -8.8823 -0.5691 3.1999 -9.3655 4.3718 -37.4235 -17.5715 76.6154 0.4500 34.0170 -4.7774 -3.3483 -3.5381 0.0207 -0.1915 -3.5432 -0.6005 
0.0000 93.1000 0.0000 57.2270 -51.8725 -30.0689 -70.7987 0.2949 87.7231 81.6990 70.2103 4.5297 5.0290 18.1041 6.2590 -110.8990 23.4393 156.7652 -150.6610 68.9483 -169.4294 1.1736 -14.1588 -10.6805 -84.1904 53.9576 -129.6669 11.3073 -5.5221 -111.0324 -2.0002 -0.6626 1.2561 -0.8260 4.6956 15.2105 -109.3496 -47.4118 102.7344 21.1437 15.7551 125.3001 -0.2652 0.7108 -1.1078 -50.0315 6.8509 93.7820 -1.9494 33.3023 -4.0400 -1.8185 -10.1058 -0.7668 3.2252 -9.1749 4.6589 -38.8587 -17.8353 76.7594 0.5991 31.7785 -6.8698 -4.1335 -1.0048 0.1228 -0.3350 -5.7829 -0.4776 
